<mxfile host="app.diagrams.net" modified="2022-09-02T22:51:10.408Z" agent="5.0 (Windows NT 10.0; Win64; x64) AppleWebKit/537.36 (KHTML, like Gecko) Chrome/104.0.0.0 Safari/537.36" etag="4dBRrT4hQCTg33GlyPYn" version="20.2.8" type="github">
  <diagram id="DMAevG95tIezAoYJx0HA" name="Página-1">
    <mxGraphModel dx="925" dy="692" grid="0" gridSize="10" guides="1" tooltips="1" connect="1" arrows="1" fold="1" page="0" pageScale="1" pageWidth="827" pageHeight="1169" math="0" shadow="0">
      <root>
        <mxCell id="0" />
        <mxCell id="1" parent="0" />
        <mxCell id="X6KKE9avudKsVQrYP34c-1" value="Aluno" style="rounded=0;whiteSpace=wrap;html=1;" vertex="1" parent="1">
          <mxGeometry x="-12" y="23" width="120" height="60" as="geometry" />
        </mxCell>
        <mxCell id="X6KKE9avudKsVQrYP34c-2" value="Cardinalidade 1:1" style="text;html=1;strokeColor=none;fillColor=none;align=center;verticalAlign=middle;whiteSpace=wrap;rounded=0;" vertex="1" parent="1">
          <mxGeometry x="133.5" y="-52" width="165" height="16" as="geometry" />
        </mxCell>
        <mxCell id="X6KKE9avudKsVQrYP34c-3" value="Usa" style="rhombus;whiteSpace=wrap;html=1;" vertex="1" parent="1">
          <mxGeometry x="176" y="11" width="80" height="80" as="geometry" />
        </mxCell>
        <mxCell id="X6KKE9avudKsVQrYP34c-4" value="Aluno" style="rounded=0;whiteSpace=wrap;html=1;" vertex="1" parent="1">
          <mxGeometry x="328" y="21" width="120" height="60" as="geometry" />
        </mxCell>
        <mxCell id="X6KKE9avudKsVQrYP34c-5" value="&lt;font style=&quot;font-size: 7px;&quot;&gt;CPF&lt;/font&gt;" style="text;html=1;strokeColor=none;fillColor=none;align=center;verticalAlign=middle;whiteSpace=wrap;rounded=0;" vertex="1" parent="1">
          <mxGeometry x="-12" y="-16" width="42" height="22" as="geometry" />
        </mxCell>
        <mxCell id="X6KKE9avudKsVQrYP34c-6" value="&lt;span style=&quot;font-size: 7px;&quot;&gt;Nome&lt;/span&gt;" style="text;html=1;strokeColor=none;fillColor=none;align=center;verticalAlign=middle;whiteSpace=wrap;rounded=0;" vertex="1" parent="1">
          <mxGeometry x="29" y="-26" width="42" height="42" as="geometry" />
        </mxCell>
        <mxCell id="X6KKE9avudKsVQrYP34c-7" value="&lt;span style=&quot;font-size: 7px;&quot;&gt;Sexo&lt;/span&gt;" style="text;html=1;strokeColor=none;fillColor=none;align=center;verticalAlign=middle;whiteSpace=wrap;rounded=0;" vertex="1" parent="1">
          <mxGeometry x="71" y="-26" width="42" height="42" as="geometry" />
        </mxCell>
        <mxCell id="X6KKE9avudKsVQrYP34c-14" value="&lt;font style=&quot;font-size: 7px;&quot;&gt;Cod&lt;/font&gt;" style="text;html=1;strokeColor=none;fillColor=none;align=center;verticalAlign=middle;whiteSpace=wrap;rounded=0;" vertex="1" parent="1">
          <mxGeometry x="323" y="-13" width="42" height="22" as="geometry" />
        </mxCell>
        <mxCell id="X6KKE9avudKsVQrYP34c-15" value="&lt;span style=&quot;font-size: 7px;&quot;&gt;Modelo&lt;/span&gt;" style="text;html=1;strokeColor=none;fillColor=none;align=center;verticalAlign=middle;whiteSpace=wrap;rounded=0;" vertex="1" parent="1">
          <mxGeometry x="364" y="-23" width="42" height="42" as="geometry" />
        </mxCell>
        <mxCell id="X6KKE9avudKsVQrYP34c-16" value="&lt;span style=&quot;font-size: 7px;&quot;&gt;Série&lt;/span&gt;" style="text;html=1;strokeColor=none;fillColor=none;align=center;verticalAlign=middle;whiteSpace=wrap;rounded=0;" vertex="1" parent="1">
          <mxGeometry x="406" y="-23" width="42" height="42" as="geometry" />
        </mxCell>
        <mxCell id="X6KKE9avudKsVQrYP34c-17" value="" style="endArrow=none;html=1;rounded=0;fontSize=7;entryX=0;entryY=0.5;entryDx=0;entryDy=0;exitX=0.991;exitY=0.456;exitDx=0;exitDy=0;exitPerimeter=0;" edge="1" parent="1" source="X6KKE9avudKsVQrYP34c-1" target="X6KKE9avudKsVQrYP34c-3">
          <mxGeometry width="50" height="50" relative="1" as="geometry">
            <mxPoint x="108" y="56" as="sourcePoint" />
            <mxPoint x="158" y="6" as="targetPoint" />
          </mxGeometry>
        </mxCell>
        <mxCell id="X6KKE9avudKsVQrYP34c-18" value="&lt;span style=&quot;font-size: 7px;&quot;&gt;1&lt;/span&gt;" style="text;html=1;strokeColor=none;fillColor=none;align=center;verticalAlign=middle;whiteSpace=wrap;rounded=0;" vertex="1" parent="1">
          <mxGeometry x="103" y="19" width="42" height="42" as="geometry" />
        </mxCell>
        <mxCell id="X6KKE9avudKsVQrYP34c-19" value="" style="endArrow=none;html=1;rounded=0;fontSize=7;entryX=0;entryY=0.5;entryDx=0;entryDy=0;exitX=0.991;exitY=0.456;exitDx=0;exitDy=0;exitPerimeter=0;" edge="1" parent="1" target="X6KKE9avudKsVQrYP34c-4">
          <mxGeometry width="50" height="50" relative="1" as="geometry">
            <mxPoint x="256.0000000000001" y="50.6799999999999" as="sourcePoint" />
            <mxPoint x="325.08000000000004" y="51.32" as="targetPoint" />
          </mxGeometry>
        </mxCell>
        <mxCell id="X6KKE9avudKsVQrYP34c-20" value="&lt;span style=&quot;font-size: 7px;&quot;&gt;Participação&amp;nbsp; mínima&amp;nbsp;=0&lt;/span&gt;&lt;br&gt;&lt;span style=&quot;font-size: 7px;&quot;&gt;Participação máxima&amp;nbsp;=1&lt;/span&gt;" style="text;html=1;strokeColor=none;fillColor=none;align=center;verticalAlign=middle;whiteSpace=wrap;rounded=0;" vertex="1" parent="1">
          <mxGeometry x="100" y="43" width="98" height="51" as="geometry" />
        </mxCell>
        <mxCell id="X6KKE9avudKsVQrYP34c-21" value="&lt;span style=&quot;font-size: 7px;&quot;&gt;Parcial&lt;/span&gt;" style="text;html=1;strokeColor=none;fillColor=none;align=center;verticalAlign=middle;whiteSpace=wrap;rounded=0;" vertex="1" parent="1">
          <mxGeometry x="94" y="14.5" width="98" height="51" as="geometry" />
        </mxCell>
      </root>
    </mxGraphModel>
  </diagram>
</mxfile>
